<?xml version="1.0" encoding="UTF-8"?><svg id="Layer_2" xmlns="http://www.w3.org/2000/svg" viewBox="0 0 250.13 152.17"><defs><style>.cls-1{fill:#fff3db;}.cls-1,.cls-2{stroke-width:0px;}.cls-2{fill:#cc5e67;}</style></defs><g id="Layer_1-2"><path class="cls-1" d="m74.96,110.52h22.76v-53.9h-23.36v-8.78h34.24v58.4c0,7.69-4.29,13.08-13.28,13.08h-20.36v-8.79Zm20.76-77.96v-2.1c0-3.29,2-5.89,7.39-5.89s7.49,2.6,7.49,5.89v2.1c0,3.29-2,5.89-7.39,5.89s-7.49-2.6-7.49-5.89Z"/><path class="cls-1" d="m132.95,25.47h10.88v31.14h.6c3-6.19,7.99-9.98,15.57-9.98,12.08,0,19.87,9.28,19.87,26.95s-7.79,26.95-19.87,26.95c-7.59,0-12.58-3.79-15.57-9.98h-.6v8.78h-10.88V25.47Zm35.44,52.31v-8.39c0-8.38-4.69-13.88-12.88-13.88-6.29,0-11.68,3.19-11.68,9.48v17.17c0,6.29,5.39,9.48,11.68,9.48,8.19,0,12.88-5.49,12.88-13.88Z"/><path class="cls-2" d="m36.65,146.93c-11.45,0-16.69-6.54-16.69-15.22v-9c0-11.45,5.07-16.85,9.16-21.6,3.76-4.25,4.91-7.2,4.91-10.63,0-7.04-7.04-10.64-20.45-10.64H0v-12.76h13.58c13.42,0,20.45-3.6,20.45-10.64,0-3.44-1.31-6.22-4.91-10.63-3.93-4.91-9.16-10.14-9.16-21.6v-9C19.96,6.54,25.2,0,36.65,0h28.8v12.76h-30.76v10.47c0,8.67,2.95,12.27,6.54,16.85,3.6,4.58,7.69,9.65,7.69,16.53,0,9-6.71,14.89-18.49,16.36v.98c11.78,1.47,18.49,7.36,18.49,16.36,0,6.87-3.93,11.94-7.69,16.53-3.6,4.42-6.54,8.18-6.54,16.85v10.47h30.76v12.76h-28.8Z"/><path class="cls-2" d="m213.48,5.24c11.45,0,16.69,6.54,16.69,15.22v9c0,11.45-5.07,16.85-9.16,21.6-3.76,4.25-4.91,7.2-4.91,10.63,0,7.04,7.04,10.64,20.45,10.64h13.58v12.76h-13.58c-13.42,0-20.45,3.6-20.45,10.64,0,3.44,1.31,6.22,4.91,10.63,3.93,4.91,9.16,10.14,9.16,21.6v9c0,8.67-5.24,15.22-16.69,15.22h-28.8v-12.76h30.76v-10.47c0-8.67-2.94-12.27-6.54-16.85-3.6-4.58-7.69-9.65-7.69-16.53,0-9,6.71-14.89,18.49-16.36v-.98c-11.78-1.47-18.49-7.36-18.49-16.36,0-6.87,3.93-11.94,7.69-16.53,3.6-4.42,6.54-8.18,6.54-16.85v-10.47h-30.76V5.24h28.8Z"/></g></svg>