<?xml version="1.0" encoding="UTF-8"?><svg id="Layer_2" xmlns="http://www.w3.org/2000/svg" viewBox="0 0 1333.15 187.16"><defs><style>.cls-1{fill:#fff3db;}.cls-1,.cls-2{stroke-width:0px;}.cls-2{fill:#cc5e67;}</style></defs><g id="Layer_1-2"><g id="Logo"><path class="cls-1" d="m122.76,144.18h35.17V63.17h-36.91v-3.84h41.24v82.49c0,3.96-1.86,6.19-6.07,6.19h-33.44v-3.84Zm32.82-108.5v-1.12c0-2.11,1.24-3.72,4.58-3.72s4.58,1.61,4.58,3.72v1.12c0,2.11-1.24,3.71-4.58,3.71s-4.58-1.61-4.58-3.71Z"/><path class="cls-1" d="m194.22,91.29c0-21.67,10.28-33.44,26.75-33.44s26.5,12.76,26.5,32.08v1.73h-48.55v3.22c0,15.85,8.17,26.01,22.67,26.01,10.16,0,17.46-4.83,21.18-14.37l3.47,1.86c-3.72,9.91-12.26,16.35-24.65,16.35-17.09,0-27.37-11.77-27.37-33.44Zm4.71-3.59v.5h43.97v-.62c0-15.98-8.05-26.01-21.92-26.01s-22.05,10.16-22.05,26.13Z"/><path class="cls-1" d="m272.74,123.24v-63.91h4.33v9.41h.37c2.35-5.57,8.17-10.9,19.32-10.9,13.87,0,21.67,8.42,21.67,23.9v41.49h-4.33v-40.75c0-14.37-6.56-20.81-18.33-20.81-9.66,0-18.7,5.2-18.7,15.85v45.7h-4.33Z"/><path class="cls-1" d="m347.05,123.24v-63.91h4.33v9.41h.37c2.35-5.57,8.17-10.9,19.32-10.9,13.87,0,21.67,8.42,21.67,23.9v41.49h-4.33v-40.75c0-14.37-6.56-20.81-18.33-20.81-9.66,0-18.7,5.2-18.7,15.85v45.7h-4.33Z"/><path class="cls-1" d="m420.61,119.4h24.89v-56.23h-24.89v-3.84h29.23v60.07h23.29v3.84h-52.51v-3.84Zm22.42-83.73v-1.12c0-2.11,1.24-3.72,4.58-3.72s4.58,1.61,4.58,3.72v1.12c0,2.11-1.24,3.71-4.58,3.71s-4.58-1.61-4.58-3.71Z"/><path class="cls-1" d="m492.07,119.4h23.41v-56.23h-24.65v-3.84h24.65v-21.55c0-3.96,1.86-6.19,6.07-6.19h25.64v3.84h-27.5v23.9h27.5v3.84h-27.5v56.23h24.65v3.84h-52.27v-3.84Z"/><path class="cls-1" d="m565.76,91.29c0-21.67,10.28-33.44,26.75-33.44s26.5,12.76,26.5,32.08v1.73h-48.55v3.22c0,15.85,8.17,26.01,22.67,26.01,10.16,0,17.46-4.83,21.18-14.37l3.47,1.86c-3.72,9.91-12.26,16.35-24.65,16.35-17.09,0-27.37-11.77-27.37-33.44Zm4.71-3.59v.5h43.97v-.62c0-15.98-8.05-26.01-21.92-26.01s-22.05,10.16-22.05,26.13Z"/><path class="cls-1" d="m639.2,119.4h21.3v-56.23h-21.3v-3.84h25.64v13.25h.37c2.85-7.18,8.17-13.25,20.19-13.25h13v4.09h-14.12c-10.78,0-19.45,6.94-19.45,19.94v36.04h27.25v3.84h-52.89v-3.84Z"/><path class="cls-1" d="m792.65,31.59h4.33v37.53h.37c2.97-5.95,9.54-11.27,19.94-11.27,16.1,0,25.76,11.52,25.76,33.44s-9.66,33.44-25.76,33.44c-10.4,0-16.97-5.33-19.94-11.27h-.37v9.78h-4.33V31.59Zm45.7,63.29v-7.18c0-15.98-7.93-26.01-22.05-26.01-10.16,0-19.32,6.32-19.32,15.98v27.25c0,9.66,9.17,15.98,19.32,15.98,14.12,0,22.05-10.03,22.05-26.01Z"/><path class="cls-1" d="m862.75,91.29c0-21.67,10.03-33.44,26.75-33.44s26.75,11.77,26.75,33.44-10.03,33.44-26.75,33.44-26.75-11.77-26.75-33.44Zm48.8,3.34v-6.69c0-16.47-8.05-26.26-22.05-26.26s-22.05,9.79-22.05,26.26v6.69c0,16.47,8.05,26.26,22.05,26.26s22.05-9.78,22.05-26.26Z"/><path class="cls-1" d="m931.11,59.33h3.96l10.65,60.07h.5l14.86-60.07h5.57l14.86,60.07h.5l10.65-60.07h3.84l-11.52,63.91h-6.19l-14.62-59.57h-.5l-14.86,59.57h-6.19l-11.52-63.91Z"/><path class="cls-1" d="m1011.48,112.1l3.1-2.6c6.44,7.93,14.37,11.52,25.39,11.52,12.51,0,20.93-4.83,20.93-14.99,0-8.92-6.32-11.39-15.98-12.76l-9.91-1.36c-11.02-1.61-20.44-4.46-20.44-16.47,0-12.63,10.53-17.59,23.41-17.59s19.82,4.71,24.89,10.03l-2.97,2.97c-4.09-4.71-10.16-9.29-22.05-9.29s-18.95,4.21-18.95,13.62c0,8.79,6.32,11.27,15.98,12.63l10.03,1.49c10.9,1.49,20.31,4.46,20.31,16.47,0,12.88-10.78,18.95-25.27,18.95-12.39,0-21.67-4.33-28.49-12.63Z"/><path class="cls-1" d="m1085.92,91.29c0-21.67,10.28-33.44,26.75-33.44s26.5,12.76,26.5,32.08v1.73h-48.55v3.22c0,15.85,8.17,26.01,22.67,26.01,10.16,0,17.46-4.83,21.18-14.37l3.47,1.86c-3.72,9.91-12.26,16.35-24.65,16.35-17.09,0-27.37-11.77-27.37-33.44Zm4.71-3.59v.5h43.97v-.62c0-15.98-8.05-26.01-21.92-26.01s-22.05,10.16-22.05,26.13Z"/><path class="cls-1" d="m1159.36,119.4h21.3v-56.23h-21.3v-3.84h25.64v13.25h.37c2.85-7.18,8.17-13.25,20.19-13.25h13v4.09h-14.12c-10.78,0-19.45,6.94-19.45,19.94v36.04h27.25v3.84h-52.89v-3.84Z"/><path class="cls-2" d="m40.6,182.3c-8.32,0-12.59-5.08-12.59-12.38v-16.24c0-15.22,6.5-21.92,10.56-27.2,5.28-6.5,6.9-9.95,6.9-14.41,0-11.17-10.76-16.44-30.45-16.44H0v-8.93h15.02c19.69,0,30.45-5.28,30.45-16.44,0-4.47-1.62-7.92-6.9-14.41-4.06-5.28-10.56-11.98-10.56-27.2V12.38c0-7.31,4.26-12.38,12.59-12.38h36.95v9.13h-39.38v18.88c0,12.79,4.47,17.86,8.32,22.74,5.28,6.9,9.13,12.38,9.13,19.69,0,11.57-9.34,18.88-22.94,20.3v.81c13.6,1.42,22.94,8.73,22.94,20.3,0,7.31-3.86,12.79-9.13,19.69-3.86,4.87-8.32,9.95-8.32,22.74v18.88h39.38v9.14h-36.95Z"/><path class="cls-2" d="m1292.54,4.87c8.32,0,12.59,5.08,12.59,12.38v16.24c0,15.22-6.5,21.92-10.56,27.2-5.28,6.5-6.9,9.95-6.9,14.41,0,11.17,10.76,16.44,30.45,16.44h15.02v8.93h-15.02c-19.69,0-30.45,5.28-30.45,16.44,0,4.47,1.62,7.92,6.9,14.41,4.06,5.28,10.56,11.98,10.56,27.2v16.24c0,7.31-4.26,12.38-12.59,12.38h-36.95v-9.13h39.38v-18.88c0-12.79-4.47-17.86-8.32-22.74-5.28-6.9-9.13-12.38-9.13-19.69,0-11.57,9.34-18.88,22.94-20.3v-.81c-13.6-1.42-22.94-8.73-22.94-20.3,0-7.31,3.86-12.79,9.13-19.69,3.86-4.87,8.32-9.95,8.32-22.74V14h-39.38V4.87h36.95Z"/></g></g></svg>