<?xml version="1.0" encoding="UTF-8"?><svg id="Layer_2" xmlns="http://www.w3.org/2000/svg" viewBox="0 0 165.15 149.75"><defs><style>.cls-1{fill:#fff3db;}.cls-1,.cls-2,.cls-3{stroke-width:0px;}.cls-2{fill:#020b1a;}.cls-3{fill:#cc5e67;}</style></defs><g id="Layer_1-2"><path class="cls-2" d="m165.15,68.37v13.01h-3.34c-8.55,0-13.03,3.67-13.03,10.84,0,3.5.73,6.5,3.13,10.84,2.6,4.83,5.83,10.33,5.83,22.01v9.17c0,8.84-3.33,15.51-10.62,15.51H18.03c-7.29,0-10.62-6.67-10.62-15.51v-9.17c0-11.68,3.23-17.18,5.83-22.01,2.4-4.34,3.13-7.34,3.13-10.84,0-7.17-4.48-10.84-13.03-10.84H0v-13.01h3.34c8.55,0,13.03-3.67,13.03-10.84,0-3.5-.84-6.34-3.13-10.84-2.5-5-5.83-10.34-5.83-22.01v-9.17C7.41,6.67,10.74,0,18.03,0h129.09c7.29,0,10.62,6.67,10.62,15.51v9.17c0,11.67-3.33,17.01-5.83,22.01-2.29,4.5-3.13,7.34-3.13,10.84,0,7.17,4.48,10.84,13.03,10.84h3.34Z"/><path class="cls-1" d="m36.37,112.52h23.2v-54.94h-23.81v-8.95h34.9v59.52c0,7.83-4.37,13.33-13.53,13.33h-20.75v-8.95Zm21.16-79.46v-2.14c0-3.36,2.04-6,7.53-6s7.63,2.65,7.63,6v2.14c0,3.36-2.04,6-7.53,6s-7.63-2.65-7.63-6Z"/><path class="cls-1" d="m81.57,25.84h11.09v31.74h.61c3.05-6.31,8.14-10.17,15.87-10.17,12.31,0,20.25,9.46,20.25,27.47s-7.94,27.47-20.25,27.47c-7.73,0-12.82-3.87-15.87-10.17h-.61v8.95h-11.09V25.84Zm36.12,53.31v-8.55c0-8.55-4.78-14.14-13.12-14.14-6.41,0-11.9,3.26-11.9,9.67v17.5c0,6.41,5.49,9.67,11.9,9.67,8.34,0,13.12-5.6,13.12-14.14Z"/><path class="cls-3" d="m36.01,13.01V0h-17.98C10.74,0,7.41,6.67,7.41,15.51v9.17c0,11.67,3.33,17.01,5.83,22.01,2.29,4.5,3.13,7.34,3.13,10.84,0,7.17-4.48,10.84-13.03,10.84H0v13.01h3.34c8.55,0,13.03,3.67,13.03,10.84,0,3.5-.73,6.5-3.13,10.84-2.6,4.83-5.83,10.33-5.83,22.01v9.17c0,8.84,3.33,15.51,10.62,15.51h17.98v-13.01h-19.23v-10.67c0-8.84,1.88-12.68,4.17-17.18,2.4-4.67,4.9-9.84,4.9-16.84,0-9.17-4.28-15.18-11.78-16.68v-1c7.5-1.5,11.78-7.5,11.78-16.67,0-7.01-2.61-12.18-4.9-16.85-2.29-4.66-4.17-8.33-4.17-17.17v-10.67h19.23Z"/><path class="cls-3" d="m161.81,68.37c-8.55,0-13.03-3.67-13.03-10.84,0-3.5.84-6.34,3.13-10.84,2.5-5,5.83-10.34,5.83-22.01v-9.17c0-8.84-3.33-15.51-10.62-15.51h-17.98v13.01h19.23v10.67c0,8.84-1.88,12.51-4.17,17.17-2.29,4.67-4.9,9.84-4.9,16.85,0,9.17,4.27,15.17,11.78,16.67v1c-7.51,1.5-11.78,7.51-11.78,16.68,0,7,2.5,12.17,4.9,16.84,2.29,4.5,4.17,8.34,4.17,17.18v10.67h-19.23v13.01h17.98c7.29,0,10.62-6.67,10.62-15.51v-9.17c0-11.68-3.23-17.18-5.83-22.01-2.4-4.34-3.13-7.34-3.13-10.84,0-7.17,4.48-10.84,13.03-10.84h3.34v-13.01h-3.34Z"/></g></svg>