<?xml version="1.0" encoding="UTF-8"?><svg id="Layer_2" xmlns="http://www.w3.org/2000/svg" viewBox="0 0 1077.45 150.86"><defs><style>.cls-1{fill:#fff3db;}.cls-1,.cls-2{stroke-width:0px;}.cls-2{fill:#cc5e67;}</style></defs><g id="Layer_0"><g id="Logo"><path class="cls-1" d="m99.32,110.52h22.76v-53.9h-23.36v-8.78h34.24v58.4c0,7.69-4.29,13.08-13.28,13.08h-20.36v-8.79Zm20.76-77.96v-2.1c0-3.29,2-5.89,7.39-5.89s7.49,2.6,7.49,5.89v2.1c0,3.29-2,5.89-7.39,5.89s-7.49-2.6-7.49-5.89Z"/><path class="cls-1" d="m155.42,73.68c0-16.57,9.58-27.05,24.26-27.05s23.66,10.38,23.66,25.55v4.09h-36.93v1.7c0,8.09,5.39,13.78,14.28,13.78,6.59,0,11.38-3.09,14.27-7.89l6.79,5.99c-3.49,5.99-10.68,10.68-21.26,10.68-15.77,0-25.06-10.48-25.06-26.85Zm10.98-5.09v.7h25.85v-1c0-8.09-4.99-13.38-12.58-13.38s-13.28,5.69-13.28,13.68Z"/><path class="cls-1" d="m217.7,99.34v-51.51h10.88v8.78h.5c2.2-5.39,6.39-9.98,14.87-9.98,10.38,0,17.37,7.09,17.37,19.57v33.14h-10.88v-31.54c0-8.19-3.69-12.28-10.68-12.28-5.59,0-11.18,2.89-11.18,8.88v34.94h-10.88Z"/><path class="cls-1" d="m277.59,99.34v-51.51h10.88v8.78h.5c2.2-5.39,6.39-9.98,14.87-9.98,10.38,0,17.37,7.09,17.37,19.57v33.14h-10.88v-31.54c0-8.19-3.69-12.28-10.68-12.28-5.59,0-11.18,2.89-11.18,8.88v34.94h-10.88Z"/><path class="cls-1" d="m339.18,90.55h17.57v-33.94h-17.57v-8.78h28.45v42.72h16.47v8.78h-44.92v-8.78Zm15.57-58v-2.1c0-3.29,2-5.89,7.39-5.89s7.49,2.6,7.49,5.89v2.1c0,3.29-2,5.89-7.39,5.89s-7.49-2.6-7.49-5.89Z"/><path class="cls-1" d="m396.78,90.55h16.47v-33.94h-17.47v-8.78h17.47v-9.28c0-7.69,4.19-13.08,13.18-13.08h17.37v8.78h-19.67v13.58h19.67v8.78h-19.67v33.94h17.37v8.78h-44.72v-8.78Z"/><path class="cls-1" d="m454.87,73.68c0-16.57,9.58-27.05,24.26-27.05s23.66,10.38,23.66,25.55v4.09h-36.93v1.7c0,8.09,5.39,13.78,14.28,13.78,6.59,0,11.38-3.09,14.27-7.89l6.79,5.99c-3.49,5.99-10.68,10.68-21.26,10.68-15.77,0-25.06-10.48-25.06-26.85Zm10.98-5.09v.7h25.85v-1c0-8.09-4.99-13.38-12.58-13.38s-13.28,5.69-13.28,13.68Z"/><path class="cls-1" d="m516.36,90.55h13.68v-33.94h-13.68v-8.78h24.56v13.68h.6c2-7.19,6.49-13.68,16.97-13.68h6.19v10.38h-10.18c-8.88,0-13.58,5.89-13.58,13.08v19.27h18.67v8.78h-43.22v-8.78Z"/><path class="cls-1" d="m636.44,25.47h10.88v31.14h.6c3-6.19,7.99-9.98,15.57-9.98,12.08,0,19.86,9.28,19.86,26.95s-7.79,26.95-19.86,26.95c-7.59,0-12.58-3.79-15.57-9.98h-.6v8.78h-10.88V25.47Zm35.44,52.31v-8.39c0-8.38-4.69-13.88-12.88-13.88-6.29,0-11.68,3.19-11.68,9.48v17.17c0,6.29,5.39,9.48,11.68,9.48,8.19,0,12.88-5.49,12.88-13.88Z"/><path class="cls-1" d="m693.94,73.58c0-16.47,9.28-26.95,24.46-26.95s24.46,10.48,24.46,26.95-9.28,26.95-24.46,26.95-24.46-10.48-24.46-26.95Zm37.53,3.89v-7.79c0-9.58-5.19-14.47-13.08-14.47s-13.08,4.89-13.08,14.47v7.79c0,9.58,5.19,14.47,13.08,14.47s13.08-4.89,13.08-14.47Z"/><path class="cls-1" d="m750.34,47.83h9.28l4.99,43.32h.9l7.69-43.32h10.58l7.59,43.32h.9l5.09-43.32h8.88l-7.19,51.51h-13.38l-6.89-39.93h-.9l-6.99,39.93h-13.38l-7.19-51.51Z"/><path class="cls-1" d="m814.12,90.65l6.69-5.99c4.49,4.89,9.98,7.59,17.67,7.59,6.99,0,11.78-2.3,11.78-7.39,0-4.39-3.49-5.59-7.89-6.19l-8.19-1.3c-8.09-1.2-17.17-4.09-17.17-14.67s8.79-16.07,21.96-16.07c9.58,0,16.47,3,21.16,8.09l-6.09,6.39c-2.69-3.09-7.39-6.19-15.47-6.19-7.09,0-10.88,2.4-10.88,6.89s3.59,5.59,7.89,6.19l8.19,1.3c8.19,1.2,17.17,3.99,17.17,14.57s-8.58,16.67-22.66,16.67c-11.08,0-19.27-3.89-24.16-9.88Z"/><path class="cls-1" d="m874.11,73.68c0-16.57,9.58-27.05,24.26-27.05s23.66,10.38,23.66,25.55v4.09h-36.93v1.7c0,8.09,5.39,13.78,14.27,13.78,6.59,0,11.38-3.09,14.28-7.89l6.79,5.99c-3.49,5.99-10.68,10.68-21.26,10.68-15.77,0-25.06-10.48-25.06-26.85Zm10.98-5.09v.7h25.85v-1c0-8.09-4.99-13.38-12.58-13.38s-13.28,5.69-13.28,13.68Z"/><path class="cls-1" d="m935.6,90.55h13.68v-33.94h-13.68v-8.78h24.56v13.68h.6c2-7.19,6.49-13.68,16.97-13.68h6.19v10.38h-10.18c-8.88,0-13.58,5.89-13.58,13.08v19.27h18.67v8.78h-43.22v-8.78Z"/><path class="cls-2" d="m36.65,146.93c-11.45,0-16.69-6.54-16.69-15.22v-9c0-11.45,5.07-16.85,9.16-21.6,3.76-4.25,4.91-7.2,4.91-10.63,0-7.04-7.04-10.64-20.45-10.64H0v-12.76h13.58c13.42,0,20.45-3.6,20.45-10.64,0-3.44-1.31-6.22-4.91-10.63-3.93-4.91-9.16-10.14-9.16-21.6v-9C19.96,6.54,25.2,0,36.65,0h28.8v12.76h-30.76v10.47c0,8.67,2.95,12.27,6.54,16.85,3.6,4.58,7.69,9.65,7.69,16.53,0,9-6.71,14.89-18.49,16.36v.98c11.78,1.47,18.49,7.36,18.49,16.36,0,6.87-3.93,11.94-7.69,16.53-3.6,4.42-6.54,8.18-6.54,16.85v10.47h30.76v12.76h-28.8Z"/><path class="cls-2" d="m1040.8,3.93c11.45,0,16.69,6.54,16.69,15.22v9c0,11.45-5.07,16.85-9.16,21.6-3.76,4.25-4.91,7.2-4.91,10.63,0,7.04,7.04,10.64,20.45,10.64h13.58v12.76h-13.58c-13.42,0-20.45,3.6-20.45,10.64,0,3.44,1.31,6.22,4.91,10.63,3.93,4.91,9.16,10.14,9.16,21.6v9c0,8.67-5.24,15.22-16.69,15.22h-28.8v-12.76h30.76v-10.47c0-8.67-2.94-12.27-6.54-16.85-3.6-4.58-7.69-9.65-7.69-16.53,0-9,6.71-14.89,18.49-16.36v-.98c-11.78-1.47-18.49-7.36-18.49-16.36,0-6.87,3.93-11.94,7.69-16.53,3.6-4.42,6.54-8.18,6.54-16.85v-10.47h-30.76V3.93h28.8Z"/></g></g></svg>